<svg width="41" height="39" viewBox="0 0 41 39" fill="none" xmlns="http://www.w3.org/2000/svg">
<path d="M38.708 21.6395C39.9181 21.6395 40.9858 20.6916 40.9858 19.4661C41.0569 18.8567 40.7722 18.3151 40.2028 17.8411L22.0304 2.64058C21.6033 2.30204 21.0339 2.16663 20.5356 2.16663C20.0373 2.16663 19.4679 2.23433 18.9696 2.70829L0.711806 17.8411C0.213542 18.3151 0 18.8567 0 19.4661C0 20.6849 0.996528 21.6395 2.27778 21.6395H4.55556V32.5C4.55556 34.8901 6.59844 36.8333 9.11111 36.8333H31.9245C34.4514 36.8333 36.4943 34.8833 36.48 32.4796L36.4302 21.6328H38.708V21.6395ZM18.2222 16.25C18.2222 15.6541 18.7347 15.1666 19.3611 15.1666H21.6389C22.2653 15.1666 22.7778 15.6541 22.7778 16.25V19.5H26.1944C26.8208 19.5 27.3333 19.9875 27.3333 20.5833V22.75C27.3333 23.3458 26.8208 23.8333 26.1944 23.8333H22.7778V27.0833C22.7778 27.6791 22.2653 28.1666 21.6389 28.1666H19.3611C18.7347 28.1666 18.2222 27.6791 18.2222 27.0833V23.8333H14.8056C14.1792 23.8333 13.6667 23.3458 13.6667 22.75V20.5833C13.6667 19.9875 14.1792 19.5 14.8056 19.5H18.2222V16.25Z" fill="black"/>
</svg>
