<svg width="90" height="90" viewBox="0 0 90 90" fill="none" xmlns="http://www.w3.org/2000/svg">
<path d="M47.3555 0.509766C46.6172 0.175781 45.8262 0 45 0C44.1738 0 43.3828 0.175781 42.6445 0.509766L9.54491 14.5547C5.67772 16.1895 2.79491 20.0039 2.81249 24.6094C2.90038 42.0469 10.0723 73.9512 40.3594 88.4531C43.2949 89.8594 46.7051 89.8594 49.6406 88.4531C79.9277 73.9512 87.0996 42.0469 87.1875 24.6094C87.2051 20.0039 84.3223 16.1895 80.4551 14.5547L47.3555 0.509766ZM28.2832 50.3086C29.1269 50.5195 30.0234 50.625 30.9375 50.625C37.1426 50.625 42.1875 45.5801 42.1875 39.375V28.125H49.957C52.084 28.125 54.0351 29.3203 54.9844 31.2363L56.25 33.75H67.5C69.0469 33.75 70.3125 35.0156 70.3125 36.5625V42.1875C70.3125 49.957 64.0195 56.25 56.25 56.25H47.8125V65.1621C47.8125 66.4453 46.7754 67.5 45.4746 67.5C45.1582 67.5 44.8418 67.4297 44.5605 67.3066L27.2109 59.8711C26.0508 59.3789 25.3125 58.2363 25.3125 56.9883C25.3125 56.4961 25.418 56.0215 25.6465 55.582L28.2832 50.3086ZM28.125 28.125H35.1562H36.5625V33.75V39.375C36.5625 42.4863 34.0488 45 30.9375 45C27.8262 45 25.3125 42.4863 25.3125 39.375V30.9375C25.3125 29.3906 26.5781 28.125 28.125 28.125ZM50.625 36.5625C50.625 35.8166 50.3287 35.1012 49.8012 34.5738C49.2738 34.0463 48.5584 33.75 47.8125 33.75C47.0666 33.75 46.3512 34.0463 45.8237 34.5738C45.2963 35.1012 45 35.8166 45 36.5625C45 37.3084 45.2963 38.0238 45.8237 38.5512C46.3512 39.0787 47.0666 39.375 47.8125 39.375C48.5584 39.375 49.2738 39.0787 49.8012 38.5512C50.3287 38.0238 50.625 37.3084 50.625 36.5625Z" fill="#A039F0"/>
</svg>
